inDegrees=no
num_controls=7
num_derivatives=13
num_iterations=107
num_multipliers=7
num_parameters=0
num_slacks=7
num_states=26
objective=4.448945
objective_accelerations=0.109847
objective_balance=0.043697
objective_effort=0.197653
objective_height=4.025895
objective_ligament=0.071853
solver_duration=1154.932454
status=Solve_Succeeded
success=true
DataType=double
version=3
OpenSimVersion=4.4-2022-07-23-0e9fedc
endheader
time	/jointset/ground_pelvis/pelvis_tilt/value	/jointset/ground_pelvis/pelvis_tx/value	/jointset/ground_pelvis/pelvis_ty/value	/jointset/hip_l/hip_flexion_l/value	/jointset/hip_l/hip_adduction_l/value	/jointset/hip_l/hip_rotation_l/value	/jointset/back/lumbar_extension/value	/jointset/patellofemoral_l/patellar_flexion_l/value	/jointset/knee_l/knee_flexion_l/value	/jointset/knee_l/knee_adduction_l/value	/jointset/knee_l/knee_rotation_l/value	/jointset/ankle_l/ankle_angle_l/value	/jointset/subtalar_l/subtalar_angle_l/value	/jointset/ground_pelvis/pelvis_tilt/speed	/jointset/ground_pelvis/pelvis_tx/speed	/jointset/ground_pelvis/pelvis_ty/speed	/jointset/hip_l/hip_flexion_l/speed	/jointset/hip_l/hip_adduction_l/speed	/jointset/hip_l/hip_rotation_l/speed	/jointset/back/lumbar_extension/speed	/jointset/patellofemoral_l/patellar_flexion_l/speed	/jointset/knee_l/knee_flexion_l/speed	/jointset/knee_l/knee_adduction_l/speed	/jointset/knee_l/knee_rotation_l/speed	/jointset/ankle_l/ankle_angle_l/speed	/jointset/subtalar_l/subtalar_angle_l/speed	/forceset/tau_hip_flexion_l	/forceset/tau_hip_adduction_l	/forceset/tau_hip_rotation_l	/forceset/tau_knee_flexion_l	/forceset/tau_ankle_angle_l	/forceset/tau_subtalar_angle_l	/forceset/tau_lumbar_extension	lambda_cid13_p0	lambda_cid13_p1	lambda_cid13_p2	lambda_cid13_p3	lambda_cid13_p4	lambda_cid13_p5	lambda_cid14_p0	/jointset/ground_pelvis/pelvis_tilt/accel	/jointset/ground_pelvis/pelvis_tx/accel	/jointset/ground_pelvis/pelvis_ty/accel	/jointset/hip_l/hip_flexion_l/accel	/jointset/hip_l/hip_adduction_l/accel	/jointset/hip_l/hip_rotation_l/accel	/jointset/back/lumbar_extension/accel	/jointset/patellofemoral_l/patellar_flexion_l/accel	/jointset/knee_l/knee_flexion_l/accel	/jointset/knee_l/knee_adduction_l/accel	/jointset/knee_l/knee_rotation_l/accel	/jointset/ankle_l/ankle_angle_l/accel	/jointset/subtalar_l/subtalar_angle_l/accel	gamma_cid13_p0	gamma_cid13_p1	gamma_cid13_p2	gamma_cid13_p3	gamma_cid13_p4	gamma_cid13_p5	gamma_cid14_p0
1.5	0.2070461260327512	0.07812505559301	0.9328344784813051	0.07639575467616912	-0.3010226985660874	-0.2671643783637492	-0.7317895687970069	0.3749706533306539	0.374970653330547	-0.1450405182097272	-0.1744038556066307	0.1263381105131878	0.04061413452768793	-0.2249183749288039	0.07481910477666776	0.07131823488656899	-0.364865739300214	0.09580850552211144	-0.3129656945462804	0.8507508499091065	-0.9096099781588058	-0.9096099781587201	-0.06361577581975479	8.503016130522108e-05	-0.3670006172288416	-0.02847657078875003	-0.03935546104122269	0.02447890381370133	-0.006126527317439273	-0.1607378201603366	0.00653728980598583	0.02230740479923471	0.1811943896150055	-42.31742273922757	-6.400431557129993	5.274183147468264	3.546352801196305	-694.2944487074378	-77.70081748120208	-23.8383468123676	-0.3892555255606339	0.0606803828897463	-0.1707819283724779	0.2806177120938537	0.1210672512791395	-0.1120139537530105	0.8568078497917793	-0.2622648478121585	-0.2622648478121656	-0.1171097301787113	0.007052331926067251	-0.1378910105915418	0.0771544995544224	9.245747374951884e-09	1.926974850212163e-07	-7.599714096839709e-08	1.930511374772243e-08	3.266033798422203e-08	1.275463834502598e-07	2.178713028314923e-08
1.51	0.2047779988449949	0.07887619225637656	0.933539022809215	0.07276116727058937	-0.3000587690331072	-0.2702995812822682	-0.7232405536015462	0.3658624325416499	0.3658624325415481	-0.1456826887317612	-0.1744029901684412	0.1226616067954154	0.04033312688968801	-0.2286649213811888	0.07539846111192366	0.06957946536043849	-0.3620171592919121	0.09696628529083283	-0.3140419982907527	0.8589290646961337	-0.9119112344542613	-0.9119112344541929	-0.06481041691612015	8.236773894221915e-05	-0.3682472165398016	-0.02771888554514742	-0.03660661452340724	0.02292349038908245	-0.006283653161078995	-0.1595958357873919	0.009336236727554265	0.02185425000700435	0.1776804618290454	-41.39402275860407	-6.357641741503486	5.258605500103262	3.247326798921085	-693.3033520644879	-77.92229780707537	-23.83607142237805	-0.3610348964475903	0.05510158079854401	-0.1770895936932474	0.292163808586733	0.1114536015912411	-0.1004836757386459	0.7798596200515432	-0.195618964133871	-0.1956189641368084	-0.1194303564629188	-0.004795863838066542	-0.1101032773937187	0.07596537794201068	1.209139670291923e-08	1.966118279909637e-07	-8.449723365139701e-08	1.757738215011044e-08	4.301954461198855e-08	1.353884056602168e-07	2.298627348732621e-08
1.52	0.2024736700544684	0.07963283014748533	0.9342258464160702	0.0691561027978075	-0.2990835976500262	-0.2734445562564286	-0.7146134499928328	0.3567348866009806	0.3567348866008762	-0.1463365634762588	-0.1744023254212592	0.1189742253073306	0.04005987407236254	-0.2321586954884533	0.07591935032510901	0.06777409067577815	-0.3589611527481418	0.09805687553642728	-0.3149201056729735	0.8663685325589109	-0.9134750084985754	-0.9134750084985245	-0.0659566202963347	4.489193574202336e-05	-0.3691761712925649	-0.026925606654368	-0.03385776800542917	0.02136807696456378	-0.006440779005495346	-0.15845385141424	0.01213518364920849	0.02140109521493184	0.1741665340431383	-40.47133719588519	-6.314139353537302	5.242243448822177	2.941526310129168	-692.3300397719621	-78.15099689197231	-23.82661460057817	-0.338701056537352	0.04898695847640654	-0.1841029600784267	0.3221030191871751	0.1076293466537219	-0.07237468130296576	0.7090584649416177	-0.1147683975841144	-0.1147683975841143	-0.1074221869485788	8.965575855504485e-05	-0.07436209895137123	0.08427322899012896	1.557496073669781e-08	1.994059283999938e-07	-9.533373339457979e-08	1.551850335551402e-08	5.406066901340266e-08	1.446960471534831e-07	2.443073660969855e-08
1.53	0.2001357591949567	0.08039441640675517	0.9348943172947266	0.06558241616992462	-0.298097859582688	-0.276597196015154	-0.7059156111428698	0.347595264682485	0.3475952646823825	-0.1470017152714862	-0.1744020499785311	0.1152791483977397	0.03979473051834165	-0.2353777382085766	0.0763911072218259	0.0659111756695486	-0.3557490134063399	0.09908045053437783	-0.3155672298664248	0.8730854311940522	-0.9143260719788422	-0.9143260719788504	-0.06706251541105396	1.320044605599731e-05	-0.3697803525804265	-0.02609381643142528	-0.03120843577736623	0.01980033055782431	-0.006599627929942985	-0.1572955073774714	0.0149148135220905	0.02097284036510949	0.1707696360480582	-39.56007345323847	-6.279881688303634	5.227846776357159	2.612398420349471	-691.4787265255463	-78.40351709044371	-23.81026375698123	-0.30664678609749	0.04525327467965485	-0.1887077537019296	0.3248422275040074	0.09816932813611418	-0.05476369715646606	0.6359346268444497	-0.05178525058030341	-0.05178525058956425	-0.1104675115240397	-0.004369775768958139	-0.04461219634311966	0.08400676885571196	1.97363091454008e-08	2.010097710882617e-07	-1.086526656392068e-07	1.310778066412165e-08	6.582633104931733e-08	1.555609091352652e-07	2.613585214515346e-08
1.54	0.1977670297270052	0.08116051687887262	0.9355438946267576	0.06204166550265852	-0.2971021962149848	-0.2797550834975781	-0.6971540174937445	0.3384508301437412	0.3384508301436612	-0.1476775848855025	-0.174402005695484	0.1115797964647497	0.03953817983653509	-0.238322417182694	0.07682219289463116	0.06399538135086584	-0.3523739606315297	0.1000419356030984	-0.315969650411459	0.8791194923909734	-0.9144375325523947	-0.9144375325524622	-0.06810018403733444	-1.340021112778393e-06	-0.3700311759738532	-0.02520703221208217	-0.02855910354915491	0.01823258415122927	-0.00675847685504884	-0.156137163340489	0.01769444339508206	0.02054458551550083	0.1673727380529935	-38.64839912827478	-6.245064990332595	5.212640628627895	2.271773253007852	-690.6305395188535	-78.66251165534128	-23.78608198801062	-0.283828307336921	0.04085271369479653	-0.1946788225690499	0.3546857057885174	0.09521136080771138	-0.0234339516197862	0.572490977297486	0.03315218375855983	0.03315218375856015	-0.09377688926081212	0.003519860261914017	-0.003690520063639307	0.09527202827054315	2.23085167904637e-08	2.098096860701151e-07	-1.187738141625323e-07	1.248481375998379e-08	7.510101194747352e-08	1.665475370970077e-07	2.792204565388841e-08
1.55	0.1953701875884971	0.08193065176097551	0.9361740650851966	0.05853555381817074	-0.2960972673068501	-0.2829158215975917	-0.6883357978741917	0.3293088991190589	0.3293088991189785	-0.1483635655178315	-0.1744020806077319	0.1078795491913576	0.03929067058776708	-0.2410044857372445	0.07719035797157883	0.06203093949741427	-0.3488080804714168	0.1009305252075854	-0.3161366980303599	0.8843805092485946	-0.9138261557680546	-0.913826155768115	-0.0690884514586584	-1.264142234303847e-05	-0.3699711539285855	-0.02429338452971128	-0.02556191488041989	0.01647789351544289	-0.006961407598847768	-0.1553681026181288	0.02078669758862257	0.02005286803670676	0.1636498349468352	-37.6435203551351	-6.192284950761954	5.186893385826852	1.975833853822634	-689.7765885577417	-78.94165337908076	-23.7534593073375	-0.254169641002581	0.03263751732425733	-0.1984754798499273	0.3635819633542017	0.08367254627931148	-0.007121067297345418	0.4813186994202335	0.09350174876145367	0.09350174876216712	-0.1002016311893166	-0.00332966449713044	0.01792315421159895	0.08960388280259939	2.30497579035066e-08	2.269007278250121e-07	-1.252105597026193e-07	1.392165243681297e-08	8.150564936082119e-08	1.776744606443566e-07	2.980165508835907e-08
1.56	0.1929477700621733	0.08270403611637206	0.9367843614024753	0.05506630949375748	-0.2950838545454361	-0.2860769863538535	-0.6794692857541779	0.3201767561268037	0.320176756126798	-0.1490591988169574	-0.1744022434387792	0.104181317055904	0.03905233636474242	-0.2434374947514091	0.0774720875533623	0.06002055311895495	-0.3450004886221277	0.1017387062524211	-0.3160549816601209	0.8887779924832657	-0.9124799260641211	-0.9124799260641744	-0.07003071738476632	-1.892379084420751e-05	-0.3696281483877163	-0.02337202706402355	-0.02256472621155308	0.01472320287984253	-0.007164338342984436	-0.1545990418956039	0.02387895178228061	0.01956115055817145	0.1599269318406677	-36.63765796712818	-6.139062781573008	5.160374222730514	1.665757222491294	-688.9186200397787	-79.22681232849116	-23.71243464461524	-0.2340163992604817	0.02356561466258999	-0.2038677275705865	0.4030280436234872	0.07912964887743437	0.02631884620792049	0.3997842527073205	0.1801227676771	0.1801227676770891	-0.08457659021755498	0.004523666807625654	0.05290617905735918	0.09681398493423307	2.403473872435887e-08	2.383144983263493e-07	-1.305741144890418e-07	1.437506379866096e-08	8.872266586736893e-08	1.85853879164623e-07	3.11688440998263e-08
1.57	0.1905023116359108	0.08347978572227673	0.9373743475597209	0.05163628096040197	-0.2940627734910612	-0.2892361097373912	-0.6705632327114027	0.3110616897322894	0.3110616897322378	-0.1497640400094946	-0.1744024488945125	0.1004878812199107	0.03882322587559925	-0.245611273896337	0.07766113206170107	0.05797052126877065	-0.3409621575809899	0.1024626530781488	-0.315729453820153	0.8922797942178476	-0.9104069445572744	-0.9104069445573016	-0.07092832662470472	-2.403288868233378e-05	-0.3690127415592638	-0.02245045621354314	-0.01950698104888246	0.01292055016466138	-0.007384782811404082	-0.1539412198849773	0.02701596184820208	0.01904893584440625	0.1561570390039473	-35.62509284916759	-6.07608890001102	5.129988902131452	1.38732885211478	-688.1423698359436	-79.51730230221702	-23.66305919105387	-0.2026237937018005	0.01407126611795084	-0.2064741338764731	0.4106929881307904	0.06678680725057448	0.04173576404201974	0.3024548559303628	0.2398406216509407	0.2398406216547138	-0.09094696975957435	-0.003334541983715468	0.07280565064444136	0.08974815720076336	2.532439417997287e-08	2.426316797607368e-07	-1.345961808333837e-07	1.359919101678247e-08	9.695515624041677e-08	1.903489164010364e-07	3.189550758253925e-08
1.58	0.188036402393888	0.08425692525270295	0.9379436527544326	0.04824792720823232	-0.2930349010468299	-0.2923907646403019	-0.6616267463068694	0.3019711441087197	0.3019711441086966	-0.1504775760702659	-0.1744027667099574	0.09680198899539126	0.03860331499938333	-0.2475276579049936	0.07775007245767494	0.05588436061237265	-0.3366655323890415	0.1030969842170147	-0.3151612855341319	0.8948646648363184	-0.9075757718719422	-0.9075757718719432	-0.07176969101967284	-4.13957426883711e-05	-0.3681194260945975	-0.02153210447919808	-0.01644923588604463	0.0111178974497421	-0.007605227280184743	-0.1532833978741999	0.03015297191425008	0.01853672113098813	0.152387146167225	-34.61078553093445	-6.012780850656191	5.098820464365696	1.092042426320875	-687.3519557892231	-79.81241364938309	-23.60541405268057	-0.1825373720071702	0.003544792190170753	-0.2110934888133166	0.4546868737853796	0.06120651150511454	0.07484693541830131	0.2163980294848015	0.3317610033741593	0.3317610033741565	-0.07332762122340421	0.002072915573913267	0.1084879063007533	0.09617016170748334	2.638148099043671e-08	2.380785705784906e-07	-1.353591029437379e-07	1.177376653529922e-08	1.039988366136733e-07	1.889934827843829e-07	3.16468002577302e-08
